# xmcd
#
# Track frame offsets: 
#        150
#        17137
#        29587
#        46150
#        73200
#        86187
#        101812
#        119137
#        143137
#        158262
#        182575
#        209500
#        222750
#        243400
#        262575
#        275487
#        291375
#        306587
#
# Disc length: 4249 seconds
#
# Revision: 2
# Processed by: cddbd v1.5.1PL2 Copyright (c) Steve Scherf et al.
# Submitted via: ExactAudioCopy v0.90b4
#
DISCID=15109712
DTITLE=The Number One Jazz Album - CD1
DYEAR=2004
DGENRE=Jazz
TTITLE0=Jamie Cullum - Twenty Something
TTITLE1=Laura Fygi - I Will Wait for You
TTITLE2=Natalie Cole and Diana Krall - Better Than Anything
TTITLE3=Cassandra Wilson - 'Round Midnight
TTITLE4=John Coltrane - It's Easy to Remember
TTITLE5=Matt Dusk - Please Please Me
TTITLE6=Chantz - Mack the Knife
TTITLE7=Claressa Monteiro - The Way You Look Tonight
TTITLE8=Peggy Lee - A Woman Alone with the Blues
TTITLE9=Dave Grusin - It Might Be You
TTITLE10=Ella Fitzgerald and Louis Armstrong - Cheek to Cheek
TTITLE11=Antonia Carlos Jobim - Wave
TTITLE12=Lakatos - Minor Swing
TTITLE13=Dee Dee Bridgewater - Stairway to the Stars
TTITLE14=Jesse Harris - How?
TTITLE15=Diana Ross - My Man
TTITLE16=Louis Armstrong - Let's Fall in Love
TTITLE17=Oscar Peterson Trio - Unforgettable
EXTD=
EXTT0=
EXTT1=
EXTT2=
EXTT3=
EXTT4=
EXTT5=
EXTT6=
EXTT7=
EXTT8=
EXTT9=
EXTT10=
EXTT11=
EXTT12=
EXTT13=
EXTT14=
EXTT15=
EXTT16=
EXTT17=
PLAYORDER=
